<?xml version="1.0" encoding="utf-8"?>
<!-- Generator: Adobe Illustrator 16.0.0, SVG Export Plug-In . SVG Version: 6.00 Build 0)  -->
<!DOCTYPE svg PUBLIC "-//W3C//DTD SVG 1.1//EN" "http://www.w3.org/Graphics/SVG/1.1/DTD/svg11.dtd">
<svg version="1.1" id="Layer_1" xmlns="http://www.w3.org/2000/svg" xmlns:xlink="http://www.w3.org/1999/xlink" x="0px" y="0px"
	 width="528.286px" height="71px" viewBox="0 0 528.286 71" enable-background="new 0 0 528.286 71" xml:space="preserve">
<g>
	<defs>
		<rect id="SVGID_1_" x="-47.714" y="-19" width="624" height="109"/>
	</defs>
	<clipPath id="SVGID_2_">
		<use xlink:href="#SVGID_1_"  overflow="visible"/>
	</clipPath>
	<path clip-path="url(#SVGID_2_)" fill-rule="evenodd" clip-rule="evenodd" d="M219.128,47.481L212.53,30.99
		c-1.337-3.3-2.942-8.472-3.031-8.918c-0.089,0.269-1.515,5.441-2.94,8.918l-6.6,16.491H219.128z M209.144,5.135h1.068
		l26.565,61.246h-9.804l-4.459-11.055H196.75l-4.457,11.055H183.2L209.144,5.135z M260.487,30.988
		c-2.407-2.585-5.707-6.773-5.707-6.773s0.626,4.99,0.626,8.734v33.432h-8.738V5.135h1.25l33.431,35.929
		c2.317,2.495,5.615,6.774,5.615,6.774s-0.624-5.349-0.624-8.738V5.759h8.738v61.246h-1.162L260.487,30.988z M309.689,5.759h9.45
		v52.332h27.992v8.29h-37.442V5.759z M358.181,5.759h38.514v8.292H367.63v17.83h25.765v8.112H367.63v18.098h30.312v8.29h-39.762
		V5.759z M406.404,36.069c0-18.096,13.104-31.023,31.114-31.023c9.271,0,16.582,2.585,21.484,8.112l-6.329,6.331
		c-3.478-3.657-7.934-5.973-15.155-5.973c-12.66,0-21.485,9.629-21.485,22.553c0,12.928,8.914,22.646,22.733,22.646
		c6.15,0,11.497-1.605,14.887-3.922V43.47H437.34v-8.203h24.96v24.161c-3.921,3.564-12.302,7.754-23.533,7.754
		C419.777,67.182,406.404,54.167,406.404,36.069 M472.457,36.069c0-18.096,13.104-31.023,31.114-31.023
		c9.271,0,16.581,2.585,21.484,8.112l-6.328,6.331c-3.479-3.657-7.936-5.973-15.156-5.973c-12.66,0-21.487,9.629-21.487,22.553
		c0,12.928,8.916,22.646,22.735,22.646c6.15,0,11.498-1.605,14.887-3.922V43.47h-16.312v-8.203h24.96v24.161
		c-3.921,3.564-12.303,7.754-23.534,7.754C485.83,67.182,472.457,54.167,472.457,36.069"/>
	<polygon clip-path="url(#SVGID_2_)" fill-rule="evenodd" clip-rule="evenodd" fill="#E2231A" points="19.332,40.571 19.332,55.357 
		23.297,55.77 23.297,66.429 0,66.429 0,55.77 3.884,55.357 3.884,16.117 0,15.702 0,5.046 45.768,5.046 45.768,20.495 
		36.351,20.495 35.607,16.612 19.332,16.612 19.332,29.665 43.952,29.665 43.952,40.571 	"/>
	<path clip-path="url(#SVGID_2_)" fill-rule="evenodd" clip-rule="evenodd" fill="#E2231A" d="M90.874,32.723
		c0-12.641-4.13-16.771-11.484-16.771s-11.568,4.13-11.568,16.771v6.031c0,12.886,4.298,16.77,11.568,16.77
		c7.188,0,11.484-3.884,11.484-16.77V32.723z M79.39,67.835c-15.946,0-26.767-7.601-26.767-29.081v-6.031
		c0-21.562,10.905-29.081,26.767-29.081c15.78,0,26.683,7.519,26.683,29.081v6.031C106.073,60.234,95.252,67.835,79.39,67.835"/>
	<path clip-path="url(#SVGID_2_)" fill-rule="evenodd" clip-rule="evenodd" fill="#E2231A" d="M171.996,5.046v10.656l-3.88,0.415
		v50.312h-16.028l-18.012-31.392c-1.404-2.398-3.055-5.29-4.377-7.932h-0.247c0.328,3.22,0.494,6.94,0.494,10.245v18.008
		l3.883,0.412v10.659h-21.727V55.77l3.802-0.412v-39.24l-3.802-0.415V5.046h19.495l18.178,30.816c1.485,2.561,3.223,5.7,4.461,8.345
		h0.164c-0.248-3.305-0.413-7.685-0.413-10.824V16.117l-3.883-0.415V5.046H171.996z"/>
</g>
</svg>
